<svg width="263" height="51" viewBox="0 0 263 51" fill="none" xmlns="http://www.w3.org/2000/svg">
<path d="M29.4876 28.7487V51.0001C34.5665 49.6776 38.4504 45.1353 38.4504 39.8744C38.4504 34.6134 34.5665 30.0711 29.4876 28.7487V28.7487Z" fill="#D37878"/>
<path d="M0 28.3746C1.3743 33.2619 6.0947 36.9992 11.562 36.9992C17.0293 36.9992 21.7497 33.2619 23.124 28.3746H0Z" fill="#114EA8"/>
<path d="M29.876 22.6251H53C51.6257 17.7378 46.8754 14.0005 41.438 14.0005C36.0006 14.0005 31.2503 17.7378 29.876 22.6251H29.876Z" fill="#E8EC2A"/>
<path d="M23.5124 0C18.4335 1.32243 14.5496 5.89346 14.5496 11.1257C14.5496 16.3579 18.4335 20.929 23.5124 22.2514V0Z" fill="#169232"/>
<path d="M73.1816 22.0332H70.3516C70.2331 22.0332 70.1374 22.0286 70.0645 22.0195C70.0007 22.0104 69.9414 21.9831 69.8867 21.9375C69.8411 21.8828 69.8184 21.8099 69.8184 21.7188C69.8184 21.3359 70.0781 20.9303 70.5977 20.502C71.1172 20.0736 71.6413 19.8457 72.1699 19.8184C72.7624 19.791 73.528 19.7773 74.4668 19.7773C74.8496 19.7773 75.196 19.7865 75.5059 19.8047C75.8249 19.8229 76.2031 19.8685 76.6406 19.9414C77.0872 20.0143 77.4792 20.1146 77.8164 20.2422C78.1536 20.3698 78.5 20.5566 78.8555 20.8027C79.2201 21.0488 79.5208 21.3405 79.7578 21.6777C79.9948 22.0059 80.1908 22.4251 80.3457 22.9355C80.5007 23.4368 80.5781 24.002 80.5781 24.6309C80.5781 25.9798 80.0267 27.0918 78.9238 27.9668C78.7689 28.0853 78.6914 28.1901 78.6914 28.2812C78.6914 28.3997 78.7598 28.4818 78.8965 28.5273C80.1178 28.9284 81.0293 29.5254 81.6309 30.3184C82.2324 31.1113 82.5332 32.1868 82.5332 33.5449C82.5332 34.0462 82.4603 34.5475 82.3145 35.0488C82.1777 35.541 81.9499 36.0286 81.6309 36.5117C81.321 36.9857 80.9382 37.4095 80.4824 37.7832C80.0358 38.1478 79.4753 38.444 78.8008 38.6719C78.1263 38.8906 77.3835 39 76.5723 39C76.2533 39 76.0938 38.9134 76.0938 38.7402C76.0938 38.6217 76.1667 38.526 76.3125 38.4531C77.4427 37.9518 78.2767 37.3092 78.8145 36.5254C79.3522 35.7415 79.6211 34.7663 79.6211 33.5996C79.6211 31.2754 78.4818 29.931 76.2031 29.5664C76.0573 29.5391 75.9844 29.4616 75.9844 29.334C75.9844 29.2155 76.0938 29.0788 76.3125 28.9238C76.7956 28.5684 77.1875 28.1081 77.4883 27.543C77.7891 26.9688 77.9395 26.3353 77.9395 25.6426C77.9395 25.0228 77.8483 24.4896 77.666 24.043C77.4928 23.5872 77.265 23.2363 76.9824 22.9902C76.709 22.735 76.349 22.5345 75.9023 22.3887C75.4648 22.2337 75.041 22.138 74.6309 22.1016C74.2207 22.056 73.7376 22.0332 73.1816 22.0332ZM69.8184 38.4121V23.6738C69.8184 23.3457 69.9277 23.127 70.1465 23.0176C70.3743 22.9082 70.7207 22.8535 71.1855 22.8535C71.696 22.8535 72.0514 22.9082 72.252 23.0176C72.4616 23.1178 72.5664 23.3366 72.5664 23.6738V26.9004C72.5664 27.2741 72.7533 27.4609 73.127 27.4609H75.5332C75.9251 27.4609 76.1211 27.584 76.1211 27.8301C76.1211 27.9395 76.0208 28.1172 75.8203 28.3633C75.6198 28.6094 75.3737 28.8145 75.082 28.9785C74.763 29.1608 74.1113 29.3385 73.127 29.5117C72.7533 29.5846 72.5664 29.8262 72.5664 30.2363V36.1973C72.5664 36.571 72.7533 36.7578 73.127 36.7578H76.0664C76.4583 36.7578 76.6543 36.8717 76.6543 37.0996C76.6543 37.291 76.4355 37.5371 75.998 37.8379C75.5605 38.1387 75.0046 38.4076 74.3301 38.6445C73.6647 38.8815 73.054 39 72.498 39H70.3789C70.0052 39 69.8184 38.804 69.8184 38.4121ZM96.0137 22.0605H84.8164C84.4245 22.0605 84.2285 21.9193 84.2285 21.6367C84.2285 21.5091 84.3197 21.2767 84.502 20.9395C84.6842 20.6022 84.8984 20.3242 85.1445 20.1055C85.3542 19.9141 85.6914 19.8184 86.1562 19.8184H97.3535C97.7454 19.8184 97.9414 19.9596 97.9414 20.2422C97.9414 20.3698 97.8503 20.6022 97.668 20.9395C97.4857 21.2767 97.2715 21.5547 97.0254 21.7734C96.8158 21.9648 96.4785 22.0605 96.0137 22.0605ZM89.4648 38.5488L89.4512 23.7012C89.4512 23.373 89.5605 23.1589 89.7793 23.0586C90.0072 22.9492 90.3535 22.8945 90.8184 22.8945C91.3288 22.8945 91.6842 22.9492 91.8848 23.0586C92.0944 23.1589 92.1992 23.373 92.1992 23.7012V37.0996C92.1992 37.4915 92.1081 37.7969 91.9258 38.0156C91.6888 38.2982 91.3607 38.5579 90.9414 38.7949C90.5312 39.0228 90.1986 39.1367 89.9434 39.1367C89.6243 39.1367 89.4648 38.9408 89.4648 38.5488ZM114.088 20.1328V28.5273C114.088 32.0273 113.732 34.584 113.021 36.1973C112.666 36.9993 112.26 37.6328 111.805 38.0977C111.349 38.5534 110.925 38.7812 110.533 38.7812C110.342 38.7812 110.246 38.6855 110.246 38.4941C110.246 38.4212 110.273 38.3438 110.328 38.2617C110.383 38.1706 110.46 38.0475 110.561 37.8926C110.67 37.7376 110.761 37.5827 110.834 37.4277C111.417 36.2155 111.709 34.2012 111.709 31.3848V21.3086C111.709 20.7617 111.937 20.3333 112.393 20.0234C112.857 19.7044 113.263 19.5449 113.609 19.5449C113.928 19.5449 114.088 19.7409 114.088 20.1328ZM102.945 20.1328V29.8125C102.945 30.4049 102.95 30.9108 102.959 31.3301C102.977 31.7402 103.014 32.2233 103.068 32.7793C103.132 33.3353 103.214 33.8047 103.314 34.1875C103.415 34.5612 103.561 34.9531 103.752 35.3633C103.952 35.7734 104.185 36.1016 104.449 36.3477C104.723 36.5846 105.064 36.7852 105.475 36.9492C105.885 37.1042 106.35 37.1816 106.869 37.1816C107.416 37.1816 107.899 37.127 108.318 37.0176C108.738 36.8991 109.057 36.7852 109.275 36.6758C109.503 36.5664 109.658 36.5117 109.74 36.5117C109.95 36.5117 110.055 36.6211 110.055 36.8398C110.055 37.0677 109.968 37.3229 109.795 37.6055C109.622 37.888 109.38 38.1706 109.07 38.4531C108.76 38.7266 108.341 38.9544 107.812 39.1367C107.284 39.3281 106.714 39.4238 106.104 39.4238C105.156 39.4238 104.331 39.278 103.629 38.9863C102.936 38.6855 102.371 38.2799 101.934 37.7695C101.496 37.2591 101.145 36.5983 100.881 35.7871C100.626 34.9759 100.448 34.1191 100.348 33.2168C100.247 32.3053 100.197 31.248 100.197 30.0449V21.582C100.197 21.1992 100.293 20.8939 100.484 20.666C100.721 20.3835 101.045 20.1283 101.455 19.9004C101.865 19.6634 102.202 19.5449 102.467 19.5449C102.786 19.5449 102.945 19.7409 102.945 20.1328ZM126.598 24.6309C126.598 24.7676 126.548 25.0684 126.447 25.5332C126.347 25.998 126.242 26.6133 126.133 27.3789C126.033 28.1445 125.982 28.9557 125.982 29.8125C125.982 30.4779 126.01 31.0885 126.064 31.6445C126.119 32.1914 126.21 32.7565 126.338 33.3398C126.475 33.9141 126.666 34.4199 126.912 34.8574C127.167 35.2949 127.477 35.6914 127.842 36.0469C128.206 36.3932 128.662 36.6621 129.209 36.8535C129.756 37.0358 130.38 37.127 131.082 37.127C131.729 37.127 132.335 37.054 132.9 36.9082C133.465 36.7624 133.894 36.6029 134.186 36.4297C134.486 36.2474 134.76 36.0833 135.006 35.9375C135.261 35.7917 135.439 35.7188 135.539 35.7188C135.758 35.7188 135.867 35.8327 135.867 36.0605C135.867 36.1973 135.808 36.3887 135.689 36.6348C135.58 36.8809 135.38 37.168 135.088 37.4961C134.796 37.8242 134.441 38.1296 134.021 38.4121C133.611 38.6947 133.055 38.9316 132.354 39.123C131.652 39.3236 130.882 39.4238 130.043 39.4238C128.712 39.4238 127.591 39.2233 126.68 38.8223C125.768 38.4212 125.053 37.8197 124.533 37.0176C124.023 36.2155 123.658 35.2904 123.439 34.2422C123.23 33.194 123.125 31.9408 123.125 30.4824C123.125 29.4525 123.189 28.5228 123.316 27.6934C123.444 26.8639 123.599 26.2715 123.781 25.916C124.009 25.4603 124.365 25.0638 124.848 24.7266C125.34 24.3802 125.786 24.207 126.188 24.207C126.461 24.207 126.598 24.3483 126.598 24.6309ZM135.594 21.0215C135.594 21.3952 135.257 21.8236 134.582 22.3066C134.309 22.5345 133.999 22.6484 133.652 22.6484C133.57 22.6484 133.493 22.6439 133.42 22.6348C133.347 22.6165 133.265 22.5938 133.174 22.5664C133.083 22.5299 133.01 22.5026 132.955 22.4844C132.9 22.4661 132.809 22.4297 132.682 22.375C132.563 22.3203 132.477 22.2793 132.422 22.252C131.456 21.8418 130.562 21.6367 129.742 21.6367C128.102 21.6367 126.507 22.3203 124.957 23.6875C124.911 23.724 124.843 23.7786 124.752 23.8516C124.661 23.9245 124.588 23.9837 124.533 24.0293C124.488 24.0658 124.428 24.1113 124.355 24.166C124.292 24.2116 124.232 24.248 124.178 24.2754C124.132 24.2936 124.091 24.3027 124.055 24.3027C123.845 24.3027 123.74 24.1888 123.74 23.9609C123.74 23.6693 123.986 23.2135 124.479 22.5938C125.317 21.5547 126.283 20.7617 127.377 20.2148C128.48 19.668 129.82 19.3945 131.396 19.3945C132.609 19.3945 133.716 19.6406 134.719 20.1328C134.892 20.2148 135.015 20.2786 135.088 20.3242C135.17 20.3607 135.275 20.4473 135.402 20.584C135.53 20.7207 135.594 20.8665 135.594 21.0215ZM143.961 24.5762C144.727 24.5762 145.415 24.6764 146.025 24.877C146.636 25.0775 147.151 25.401 147.57 25.8477C147.99 26.2852 148.309 26.8548 148.527 27.5566C148.755 28.2493 148.869 29.0879 148.869 30.0723V37.4824C148.869 37.7103 148.796 37.9245 148.65 38.125C148.514 38.3255 148.34 38.5033 148.131 38.6582C147.93 38.804 147.712 38.918 147.475 39C147.247 39.0911 147.046 39.1367 146.873 39.1367C146.554 39.1367 146.395 38.9408 146.395 38.5488V30.5781C146.395 27.8893 145.328 26.5449 143.195 26.5449C141.956 26.5449 140.83 26.8867 139.818 27.5703C139.417 27.8346 139.158 27.9668 139.039 27.9668C138.902 27.9668 138.834 27.8939 138.834 27.748C138.834 27.4928 138.975 27.1921 139.258 26.8457C140.497 25.3327 142.065 24.5762 143.961 24.5762ZM145.355 38.2344C144.973 38.5807 144.499 38.8633 143.934 39.082C143.368 39.3099 142.826 39.4238 142.307 39.4238C141.094 39.4238 140.165 39.1048 139.518 38.4668C138.88 37.8197 138.561 37.0267 138.561 36.0879C138.561 35.4134 138.793 34.8984 139.258 34.543C139.677 34.2148 140.042 34.0508 140.352 34.0508C140.452 34.0508 140.538 34.0872 140.611 34.1602C140.684 34.2331 140.721 34.3424 140.721 34.4883C140.721 35.5273 140.898 36.2839 141.254 36.7578C141.609 37.2227 142.243 37.4551 143.154 37.4551C143.428 37.4551 143.76 37.4095 144.152 37.3184C144.544 37.2181 144.877 37.0859 145.15 36.9219C145.314 36.8216 145.438 36.7715 145.52 36.7715C145.647 36.7715 145.711 36.9401 145.711 37.2773C145.711 37.6966 145.592 38.0156 145.355 38.2344ZM145.246 30.8516C145.419 30.9427 145.538 31.0658 145.602 31.2207C145.665 31.3665 145.697 31.6445 145.697 32.0547C145.697 32.4193 145.665 32.6836 145.602 32.8477C145.547 33.0026 145.442 33.0801 145.287 33.0801C145.187 33.0801 145.046 33.0391 144.863 32.957C144.007 32.5833 143.232 32.3965 142.539 32.3965C141.418 32.3965 140.352 32.8021 139.34 33.6133C139.021 33.8685 138.807 33.9961 138.697 33.9961C138.551 33.9961 138.479 33.9141 138.479 33.75C138.479 33.4948 138.57 33.2168 138.752 32.916C139.235 32.1048 139.868 31.4896 140.652 31.0703C141.445 30.6419 142.325 30.4277 143.291 30.4277C144.029 30.4277 144.681 30.569 145.246 30.8516ZM152.232 38.5488V19.709C152.232 19.2168 152.456 18.8112 152.902 18.4922C153.349 18.1641 153.786 18 154.215 18C154.534 18 154.693 18.196 154.693 18.5879V37.4277C154.693 37.929 154.47 38.3392 154.023 38.6582C153.577 38.9772 153.139 39.1367 152.711 39.1367C152.392 39.1367 152.232 38.9408 152.232 38.5488ZM160.217 32.0547C160.217 35.6367 161.493 37.4277 164.045 37.4277C164.574 37.4277 165.07 37.3685 165.535 37.25C166 37.1224 166.355 36.9811 166.602 36.8262C166.857 36.6712 167.094 36.5345 167.312 36.416C167.531 36.2884 167.686 36.2246 167.777 36.2246C167.996 36.2246 168.105 36.3294 168.105 36.5391C168.105 36.7396 167.987 36.9993 167.75 37.3184C167.513 37.6283 167.194 37.9427 166.793 38.2617C166.392 38.5807 165.872 38.8542 165.234 39.082C164.605 39.3099 163.949 39.4238 163.266 39.4238C161.352 39.4238 159.934 38.8496 159.014 37.7012C158.093 36.5436 157.633 34.8848 157.633 32.7246C157.633 31.2025 157.838 30.1315 158.248 29.5117C158.458 29.1927 158.777 28.8965 159.205 28.623C159.633 28.3405 159.998 28.1992 160.299 28.1992C160.518 28.1992 160.627 28.3268 160.627 28.582C160.627 28.5911 160.559 28.9876 160.422 29.7715C160.285 30.5553 160.217 31.3164 160.217 32.0547ZM167.271 25.3691C167.545 25.5788 167.682 25.793 167.682 26.0117C167.682 26.2396 167.499 26.5176 167.135 26.8457C166.77 27.1647 166.433 27.3242 166.123 27.3242C165.859 27.3242 165.549 27.2422 165.193 27.0781C164.428 26.7227 163.73 26.5449 163.102 26.5449C161.716 26.5449 160.381 26.9915 159.096 27.8848C158.704 28.1491 158.467 28.2812 158.385 28.2812C158.257 28.2812 158.193 28.2038 158.193 28.0488C158.193 27.9395 158.243 27.7891 158.344 27.5977C158.444 27.4062 158.535 27.2604 158.617 27.1602C159.31 26.276 160.076 25.6243 160.914 25.2051C161.753 24.7858 162.814 24.5762 164.1 24.5762C164.674 24.5762 165.262 24.6445 165.863 24.7812C166.465 24.918 166.934 25.1139 167.271 25.3691ZM174.969 39.4238C174.203 39.4238 173.542 39.3236 172.986 39.123C172.439 38.9316 171.993 38.6126 171.646 38.166C171.3 37.7103 171.045 37.1224 170.881 36.4023C170.717 35.6823 170.635 34.7936 170.635 33.7363V26.3125C170.635 26.0664 170.699 25.8385 170.826 25.6289C170.963 25.4102 171.127 25.2233 171.318 25.0684C171.519 24.9134 171.733 24.7949 171.961 24.7129C172.198 24.6217 172.417 24.5762 172.617 24.5762C172.936 24.5762 173.096 24.7721 173.096 25.1641V33.4902L173.15 34.543C173.187 35.0625 173.26 35.5091 173.369 35.8828C173.479 36.2474 173.643 36.5482 173.861 36.7852C174.08 37.013 174.354 37.1816 174.682 37.291C175.019 37.4004 175.424 37.4551 175.898 37.4551C176.655 37.4551 177.343 37.2773 177.963 36.9219C178.136 36.8216 178.25 36.7715 178.305 36.7715C178.387 36.7715 178.441 36.8034 178.469 36.8672C178.505 36.931 178.523 37.0677 178.523 37.2773C178.523 37.6602 178.391 37.9883 178.127 38.2617C177.863 38.526 177.544 38.7448 177.17 38.918C176.796 39.0911 176.404 39.2188 175.994 39.3008C175.593 39.3828 175.251 39.4238 174.969 39.4238ZM181.682 25.1641V37.4141C181.682 37.9062 181.454 38.3164 180.998 38.6445C180.551 38.9727 180.118 39.1367 179.699 39.1367C179.38 39.1367 179.221 38.9408 179.221 38.5488V26.2988C179.221 25.8249 179.449 25.4193 179.904 25.082C180.36 24.7448 180.793 24.5762 181.203 24.5762C181.522 24.5762 181.682 24.7721 181.682 25.1641ZM185.045 38.5488V19.709C185.045 19.2168 185.268 18.8112 185.715 18.4922C186.161 18.1641 186.599 18 187.027 18C187.346 18 187.506 18.196 187.506 18.5879V37.4277C187.506 37.929 187.283 38.3392 186.836 38.6582C186.389 38.9772 185.952 39.1367 185.523 39.1367C185.204 39.1367 185.045 38.9408 185.045 38.5488ZM196.297 24.5762C197.062 24.5762 197.751 24.6764 198.361 24.877C198.972 25.0775 199.487 25.401 199.906 25.8477C200.326 26.2852 200.645 26.8548 200.863 27.5566C201.091 28.2493 201.205 29.0879 201.205 30.0723V37.4824C201.205 37.7103 201.132 37.9245 200.986 38.125C200.85 38.3255 200.676 38.5033 200.467 38.6582C200.266 38.804 200.048 38.918 199.811 39C199.583 39.0911 199.382 39.1367 199.209 39.1367C198.89 39.1367 198.73 38.9408 198.73 38.5488V30.5781C198.73 27.8893 197.664 26.5449 195.531 26.5449C194.292 26.5449 193.166 26.8867 192.154 27.5703C191.753 27.8346 191.493 27.9668 191.375 27.9668C191.238 27.9668 191.17 27.8939 191.17 27.748C191.17 27.4928 191.311 27.1921 191.594 26.8457C192.833 25.3327 194.401 24.5762 196.297 24.5762ZM197.691 38.2344C197.309 38.5807 196.835 38.8633 196.27 39.082C195.704 39.3099 195.162 39.4238 194.643 39.4238C193.43 39.4238 192.501 39.1048 191.854 38.4668C191.215 37.8197 190.896 37.0267 190.896 36.0879C190.896 35.4134 191.129 34.8984 191.594 34.543C192.013 34.2148 192.378 34.0508 192.688 34.0508C192.788 34.0508 192.874 34.0872 192.947 34.1602C193.02 34.2331 193.057 34.3424 193.057 34.4883C193.057 35.5273 193.234 36.2839 193.59 36.7578C193.945 37.2227 194.579 37.4551 195.49 37.4551C195.764 37.4551 196.096 37.4095 196.488 37.3184C196.88 37.2181 197.213 37.0859 197.486 36.9219C197.65 36.8216 197.773 36.7715 197.855 36.7715C197.983 36.7715 198.047 36.9401 198.047 37.2773C198.047 37.6966 197.928 38.0156 197.691 38.2344ZM197.582 30.8516C197.755 30.9427 197.874 31.0658 197.938 31.2207C198.001 31.3665 198.033 31.6445 198.033 32.0547C198.033 32.4193 198.001 32.6836 197.938 32.8477C197.883 33.0026 197.778 33.0801 197.623 33.0801C197.523 33.0801 197.382 33.0391 197.199 32.957C196.342 32.5833 195.568 32.3965 194.875 32.3965C193.754 32.3965 192.688 32.8021 191.676 33.6133C191.357 33.8685 191.143 33.9961 191.033 33.9961C190.887 33.9961 190.814 33.9141 190.814 33.75C190.814 33.4948 190.906 33.2168 191.088 32.916C191.571 32.1048 192.204 31.4896 192.988 31.0703C193.781 30.6419 194.661 30.4277 195.627 30.4277C196.365 30.4277 197.017 30.569 197.582 30.8516ZM208.314 28.418V33.2031C208.314 33.987 208.36 34.6523 208.451 35.1992C208.542 35.737 208.674 36.1745 208.848 36.5117C209.03 36.849 209.253 37.0905 209.518 37.2363C209.791 37.3822 210.11 37.4551 210.475 37.4551C210.903 37.4551 211.258 37.4049 211.541 37.3047C211.833 37.1953 212.074 37.0814 212.266 36.9629C212.457 36.8353 212.617 36.7214 212.744 36.6211C212.872 36.5117 212.999 36.457 213.127 36.457C213.245 36.457 213.332 36.4935 213.387 36.5664C213.441 36.6302 213.469 36.7168 213.469 36.8262C213.469 36.9811 213.405 37.2044 213.277 37.4961C213.159 37.7786 212.954 38.0658 212.662 38.3574C212.37 38.64 211.983 38.8861 211.5 39.0957C211.026 39.3145 210.429 39.4238 209.709 39.4238C209.007 39.4238 208.41 39.3236 207.918 39.123C207.435 38.9225 207.038 38.599 206.729 38.1523C206.419 37.6966 206.195 37.1087 206.059 36.3887C205.922 35.6595 205.854 34.7663 205.854 33.709V28.418C205.854 28.2174 205.895 28.0671 205.977 27.9668C206.068 27.8574 206.177 27.7799 206.305 27.7344C206.441 27.6888 206.578 27.666 206.715 27.666C206.861 27.666 206.988 27.666 207.098 27.666C207.262 27.666 207.417 27.6751 207.562 27.6934C207.717 27.7025 207.85 27.7344 207.959 27.7891C208.068 27.8346 208.155 27.9076 208.219 28.0078C208.283 28.1081 208.314 28.2448 208.314 28.418ZM205.143 25.4512V26.2305C205.143 26.4583 205.092 26.6361 204.992 26.7637C204.892 26.8913 204.701 26.9551 204.418 26.9551H203.775C203.456 26.9551 203.297 26.8548 203.297 26.6543C203.297 26.4082 203.493 26.071 203.885 25.6426C204.286 25.2142 204.605 25 204.842 25C205.042 25 205.143 25.1504 205.143 25.4512ZM208.314 22.5117V24.2754C208.314 24.5579 208.378 24.7493 208.506 24.8496C208.633 24.9499 208.811 25 209.039 25H212.703C213.022 25 213.182 25.1048 213.182 25.3145C213.182 25.5332 213.027 25.8066 212.717 26.1348C212.416 26.4629 212.115 26.6816 211.814 26.791C211.523 26.9004 210.999 26.9551 210.242 26.9551H206.578C206.35 26.9551 206.173 26.9049 206.045 26.8047C205.917 26.7044 205.854 26.513 205.854 26.2305V23.6465C205.854 23.1452 206.077 22.735 206.523 22.416C206.97 22.0879 207.408 21.9238 207.836 21.9238C208.155 21.9238 208.314 22.1198 208.314 22.5117ZM221.043 24.5762C223.121 24.5762 224.648 25.1914 225.623 26.4219C226.607 27.6432 227.1 29.4479 227.1 31.8359C227.1 32.5742 227.004 33.3672 226.812 34.2148C226.63 35.0534 226.38 35.8008 226.061 36.457C225.714 37.1497 225.29 37.7376 224.789 38.2207C224.288 38.7038 223.882 38.9453 223.572 38.9453C223.381 38.9453 223.285 38.8587 223.285 38.6855C223.285 38.6309 223.317 38.5579 223.381 38.4668C223.445 38.3757 223.531 38.2389 223.641 38.0566C223.75 37.8652 223.846 37.6465 223.928 37.4004C224.301 36.3796 224.488 34.9349 224.488 33.0664C224.488 32.0365 224.415 31.1432 224.27 30.3867C224.133 29.6211 223.9 28.9421 223.572 28.3496C223.253 27.7572 222.807 27.3105 222.232 27.0098C221.658 26.6999 220.956 26.5449 220.127 26.5449C218.979 26.5449 217.794 26.9642 216.572 27.8027C216.527 27.8392 216.458 27.8893 216.367 27.9531C216.276 28.0078 216.203 28.0534 216.148 28.0898C216.103 28.1263 216.053 28.1582 215.998 28.1855C215.943 28.2129 215.898 28.2266 215.861 28.2266C215.734 28.2266 215.67 28.1491 215.67 27.9941C215.67 27.8939 215.72 27.748 215.82 27.5566C215.93 27.3652 216.021 27.224 216.094 27.1328C217.424 25.4284 219.074 24.5762 221.043 24.5762ZM217.707 31.4531C217.707 32.0911 217.721 32.638 217.748 33.0938C217.775 33.5495 217.826 34.0234 217.898 34.5156C217.98 35.0078 218.099 35.418 218.254 35.7461C218.418 36.0742 218.618 36.375 218.855 36.6484C219.102 36.9219 219.411 37.127 219.785 37.2637C220.159 37.3913 220.596 37.4551 221.098 37.4551C221.526 37.4551 221.9 37.3958 222.219 37.2773C222.547 37.1589 222.734 37.0996 222.779 37.0996C222.971 37.0996 223.066 37.1999 223.066 37.4004C223.066 37.8105 222.77 38.2526 222.178 38.7266C221.594 39.1914 220.874 39.4238 220.018 39.4238C219.225 39.4238 218.532 39.2917 217.939 39.0273C217.356 38.763 216.887 38.4167 216.531 37.9883C216.176 37.5599 215.889 37.0221 215.67 36.375C215.46 35.7279 215.319 35.0762 215.246 34.4199C215.173 33.7637 215.137 33.0208 215.137 32.1914C215.137 31.7266 215.182 31.2389 215.273 30.7285C215.365 30.209 215.488 29.8125 215.643 29.5391C215.834 29.2109 216.139 28.9102 216.559 28.6367C216.987 28.3633 217.352 28.2266 217.652 28.2266C217.88 28.2266 217.994 28.3633 217.994 28.6367C217.994 28.6823 217.944 29.0332 217.844 29.6895C217.753 30.3457 217.707 30.9336 217.707 31.4531ZM230.08 38.5488V31.6582C230.08 31.1478 230.203 30.7559 230.449 30.4824C230.695 30.1999 230.987 29.9447 231.324 29.7168C231.661 29.4798 231.926 29.3613 232.117 29.3613C232.4 29.3613 232.541 29.5573 232.541 29.9492V37.4141C232.541 37.9154 232.318 38.3301 231.871 38.6582C231.424 38.9772 230.987 39.1367 230.559 39.1367C230.24 39.1367 230.08 38.9408 230.08 38.5488ZM235.959 24.5762C236.479 24.5762 237.021 24.6901 237.586 24.918C238.16 25.1458 238.447 25.4421 238.447 25.8066C238.447 26.0983 238.256 26.4036 237.873 26.7227C237.49 27.0326 237.153 27.1875 236.861 27.1875C236.615 27.1875 236.269 27.0736 235.822 26.8457C235.403 26.6452 235.02 26.5449 234.674 26.5449C234.455 26.5449 234.245 26.5814 234.045 26.6543C233.844 26.7181 233.612 26.8503 233.348 27.0508C233.083 27.2422 232.865 27.4108 232.691 27.5566C232.527 27.6934 232.24 27.9531 231.83 28.3359C231.429 28.7096 231.115 28.9967 230.887 29.1973C230.686 29.3704 230.518 29.457 230.381 29.457C230.18 29.457 230.08 29.2884 230.08 28.9512V26.2988C230.08 25.8066 230.303 25.3965 230.75 25.0684C231.206 24.7402 231.643 24.5762 232.062 24.5762C232.382 24.5762 232.541 24.7721 232.541 25.1641V25.9297C232.541 26.2214 232.605 26.3672 232.732 26.3672C232.833 26.3672 232.992 26.2578 233.211 26.0391C234.186 25.0638 235.102 24.5762 235.959 24.5762Z" fill="#FAFAFA"/>
</svg>
