<svg width="53" height="51" viewBox="0 0 53 51" fill="none" xmlns="http://www.w3.org/2000/svg">
<path d="M29.4876 28.7487V51.0001C34.5665 49.6776 38.4504 45.1353 38.4504 39.8744C38.4504 34.6134 34.5665 30.0711 29.4876 28.7487V28.7487Z" fill="#D37878"/>
<path d="M0 28.3746C1.3743 33.2619 6.0947 36.9992 11.562 36.9992C17.0293 36.9992 21.7497 33.2619 23.124 28.3746H0Z" fill="#114EA8"/>
<path d="M29.876 22.6251H53C51.6257 17.7378 46.8754 14.0005 41.438 14.0005C36.0006 14.0005 31.2503 17.7378 29.876 22.6251H29.876Z" fill="#E8EC2A"/>
<path d="M23.5124 0C18.4335 1.32243 14.5496 5.89346 14.5496 11.1257C14.5496 16.3579 18.4335 20.929 23.5124 22.2514V0Z" fill="#169232"/>
</svg>
